<svg width="22" height="21" viewBox="0 0 22 21" fill="none" xmlns="http://www.w3.org/2000/svg">
<path d="M9.25 4.47222C9.25 4.01546 9.43437 3.57741 9.76256 3.25443C10.0908 2.93145 10.5359 2.75 11 2.75C11.4641 2.75 11.9092 2.93145 12.2374 3.25443C12.5656 3.57741 12.75 4.01546 12.75 4.47222C13.7549 4.93983 14.6115 5.66773 15.228 6.5779C15.8446 7.48807 16.1979 8.5462 16.25 9.63889V12.2222C16.3158 12.7576 16.5085 13.2702 16.8125 13.7189C17.1164 14.1676 17.5232 14.5398 18 14.8056H4C4.47682 14.5398 4.88358 14.1676 5.18754 13.7189C5.49149 13.2702 5.68415 12.7576 5.75 12.2222V9.63889C5.80212 8.5462 6.15539 7.48807 6.77196 6.5779C7.38852 5.66773 8.24514 4.93983 9.25 4.47222Z" stroke="white" stroke-width="2" stroke-linecap="round" stroke-linejoin="round"/>
<path d="M8.375 14.8055V15.6667C8.375 16.3518 8.65156 17.0089 9.14384 17.4933C9.63613 17.9778 10.3038 18.25 11 18.25C11.6962 18.25 12.3639 17.9778 12.8562 17.4933C13.3484 17.0089 13.625 16.3518 13.625 15.6667V14.8055" stroke="white" stroke-width="2" stroke-linecap="round" stroke-linejoin="round"/>
<path d="M18.875 5.95936C18.301 4.73077 17.4676 3.63668 16.4302 2.75" stroke="white" stroke-width="2" stroke-linecap="round" stroke-linejoin="round"/>
<path d="M3.125 5.95936C3.69843 4.73093 4.53126 3.63686 5.568 2.75" stroke="white" stroke-width="2" stroke-linecap="round" stroke-linejoin="round"/>
</svg>
